<?xml version="1.0" encoding="utf-8"?>
<!-- Generator: Adobe Illustrator 15.1.0, SVG Export Plug-In . SVG Version: 6.00 Build 0)  -->
<!DOCTYPE svg PUBLIC "-//W3C//DTD SVG 1.1//EN" "http://www.w3.org/Graphics/SVG/1.1/DTD/svg11.dtd">
<svg version="1.1" id="Layer_1" xmlns="http://www.w3.org/2000/svg" xmlns:xlink="http://www.w3.org/1999/xlink" x="0px" y="0px"
	 width="228.75px" height="15.3px" viewBox="0 0 228.75 15.3" enable-background="new 0 0 228.75 15.3" xml:space="preserve">
<g>
	<path d="M9.45,8.851L7.3,3.701L5.15,8.851H9.45z M10.3,10.951H4.25L2.5,15.001H0L6.5,0.3h1.55c1.2,2.951,6.5,14.701,6.5,14.701
		h-2.5L10.3,10.951z"/>
	<path d="M177.6,8.851l-2.148-5.15l-2.15,5.15H177.6z M178.45,10.951h-6.05l-1.75,4.051h-2.5l6.5-14.701h1.55
		c1.2,2.951,6.5,14.701,6.5,14.701h-2.5L178.45,10.951z"/>
	<polygon points="50.6,2.351 44.7,2.351 44.7,5.902 50.45,5.902 50.45,8.001 44.7,8.001 44.7,12.902 50.6,12.902 50.6,15.001 
		42.5,15.001 42.5,0.3 50.6,0.3 	"/>
	<path d="M60.2,7.05h0.7c2.1,0,3.149-0.799,3.149-2.398c0-1.5-1-2.25-3.05-2.25h-0.8V7.05L60.2,7.05z M62.95,8.701l4.55,6.25h-2.7
		l-4.2-6H60.2v6H58V0.251h2.6c1.95,0,3.351,0.352,4.2,1.102c0.95,0.799,1.45,1.898,1.45,3.197c0,1.053-0.3,1.951-0.9,2.701
		C64.75,8.05,63.95,8.501,62.95,8.701"/>
	<rect x="74.25" y="0.3" width="2.2" height="14.701"/>
	<path d="M94.75,1.101V3.75c-1.3-1.049-2.6-1.6-4-1.6c-1.5,0-2.8,0.551-3.8,1.648C85.9,4.9,85.4,6.199,85.4,7.75
		c0,1.549,0.5,2.852,1.55,3.9s2.3,1.6,3.85,1.6c0.8,0,1.45-0.148,2-0.398c0.3-0.15,0.601-0.303,0.95-0.5
		c0.35-0.201,0.65-0.5,1.05-0.803v2.65c-1.25,0.701-2.6,1.051-4,1.051c-2.1,0-3.899-0.75-5.399-2.201c-1.5-1.5-2.2-3.25-2.2-5.35
		c0-1.85,0.6-3.549,1.85-5C86.55,0.9,88.55,0,90.95,0C92.25,0.001,93.5,0.351,94.75,1.101"/>
	<polygon points="162.45,2.351 156.55,2.351 156.55,5.902 162.25,5.902 162.25,8.001 156.55,8.001 156.55,12.902 162.45,12.902 
		162.45,15.001 154.35,15.001 154.35,0.3 162.45,0.3 	"/>
	<path d="M194.6,7.351h6.052v0.5c0,1.1-0.15,2.1-0.4,2.949c-0.25,0.801-0.7,1.5-1.3,2.199c-1.352,1.551-3.102,2.301-5.2,2.301
		c-2.05,0-3.8-0.75-5.3-2.25c-1.45-1.5-2.2-3.301-2.2-5.35c0-2.15,0.75-3.951,2.25-5.4c1.5-1.5,3.3-2.25,5.45-2.25
		c1.148,0,2.2,0.25,3.2,0.699c0.948,0.451,1.898,1.25,2.8,2.301l-1.602,1.5c-1.198-1.6-2.648-2.398-4.398-2.398
		c-1.55,0-2.852,0.549-3.9,1.6c-1.049,1.049-1.6,2.352-1.6,3.949c0,1.65,0.6,3,1.75,4.051c1.1,1,2.3,1.449,3.55,1.449
		c1.1,0,2.05-0.35,2.95-1.1c0.85-0.75,1.35-1.65,1.45-2.65H194.5v-2.1H194.6L194.6,7.351z"/>
	<polygon points="209.6,0.3 209.6,12.902 213.9,12.902 213.9,15.001 207.4,15.001 207.4,0.3 	"/>
	<polygon points="220.65,0.3 220.65,15.001 228.75,15.001 228.75,12.902 222.85,12.902 222.85,8.001 228.55,8.001 228.55,5.902 
		222.85,5.902 222.85,2.351 228.75,2.351 228.75,0.3 	"/>
	<path d="M109.95,8.851l-2.15-5.15l-2.149,5.15H109.95z M110.8,10.951h-6.05L103,15.001h-2.5L107,0.3h1.55
		c1.2,2.951,6.5,14.701,6.5,14.701h-2.5L110.8,10.951z"/>
	<polygon points="23.5,6.101 27.45,15.001 28.05,15.001 32.1,6.101 33.5,15.001 35.8,15.001 33.2,0.201 32.55,0.201 27.8,10.601 
		23.2,0.201 22.55,0.201 19.65,15.001 21.95,15.001 	"/>
	<g>
		<polygon points="134.2,15.001 134.2,0.3 132,0.3 132,10.501 121.65,0.201 120.8,0.201 120.8,15.001 123,15.001 123,4.652 
			133.35,15.001 		"/>
	</g>
</g>
</svg>
