<?xml version="1.0" encoding="utf-8"?>
<svg version="1.1" id="Warstwa_1" xmlns="http://www.w3.org/2000/svg" xmlns:xlink="http://www.w3.org/1999/xlink" x="0px" y="0px"
	 viewBox="0 0 164 52" style="enable-background:new 0 0 164 52;" xml:space="preserve">
<style type="text/css">
	.st0{fill:#AF1280;}
	.st1{fill:#1D1D1B;}
	.st2{fill:#DA007E;}
</style>
<path class="st0" d="M1.6,32.9c0,3.4,2.7,6.2,6,6.2c3.3,0,6-2.8,6-6.2c0-3.5-2.7-6.2-6-6.2c-3.2,0-5.8,2.7-6,6V32.9z M0,33.2v-0.3
	v-0.3V19.2c0-0.4,0.3-0.8,0.8-0.8c0.4,0,0.8,0.3,0.8,0.8v8.9c1.4-1.8,3.5-3,6-3c4.2,0,7.5,3.5,7.5,7.8c0,4.2-3.3,7.7-7.5,7.7
	c-2.4,0-4.6-1.2-6-3v2.3c0,0.4-0.3,0.8-0.8,0.8c-0.4,0-0.8-0.3-0.8-0.8V33.2z"/>
<path class="st0" d="M18.3,31.7H30c-0.5-2.9-3-5-5.8-5C21.3,26.6,18.8,28.7,18.3,31.7 M16.6,32.9c0-4.3,3.4-7.8,7.5-7.8
	c4,0,7.2,3.2,7.5,7.2v0v0.1c0,0.4-0.3,0.7-0.8,0.7H18.2c0.2,3.4,2.8,6,6,6c2.1,0,4-1.1,5-2.8c0.2-0.4,0.7-0.4,1-0.3
	c0.3,0.3,0.5,0.7,0.3,1.1c-1.3,2.1-3.6,3.5-6.3,3.5C20,40.7,16.6,37.2,16.6,32.9"/>
<path class="st1" d="M57.5,26.5c0-6.3-4.7-11.2-10.5-11.2c-5.7,0-10.5,4.9-10.5,11.2c0,6.3,4.7,11.3,10.5,11.3
	C52.8,37.8,57.5,32.8,57.5,26.5 M60.3,38.4c0,7.3-5.9,13.2-13.3,13.2c-2.1,0-4-0.5-5.9-1.3c-0.6-0.4-0.9-1.2-0.6-1.8
	c0.3-0.7,1.1-1,1.8-0.6c1.4,0.7,2.9,1,4.6,1c5.9,0,10.5-4.7,10.5-10.5V35c-2.4,3.4-6.2,5.5-10.5,5.5c-7.4,0-13.2-6.3-13.2-14
	c0-7.6,5.9-14,13.2-14c4.3,0,8.2,2.2,10.5,5.5v-4.1c0-0.7,0.6-1.4,1.4-1.4c0.7,0,1.3,0.6,1.3,1.4V38.4z"/>
<path class="st1" d="M68.3,1.8c0-0.7,0.6-1.4,1.4-1.4c0.8,0,1.4,0.6,1.4,1.4v37.4c0,0.7-0.6,1.4-1.4,1.4c-0.7,0-1.4-0.6-1.4-1.4V1.8
	z"/>
<path class="st1" d="M90.1,37.9c5.7,0,10.6-5.1,10.6-11.3c0-6.3-4.8-11.4-10.6-11.4c-5.7,0-10.6,5.1-10.6,11.4
	C79.6,32.8,84.4,37.9,90.1,37.9 M90.1,12.5c7.4,0,13.3,6.4,13.3,14.1c0,7.6-5.9,14.1-13.3,14.1c-7.4,0-13.3-6.4-13.3-14.1
	C76.8,18.9,82.8,12.5,90.1,12.5"/>
<path class="st1" d="M141.1,13.8c0-0.7,0.6-1.3,1.3-1.3c0.8,0,1.4,0.6,1.4,1.3v15.3c0,4.8,3.8,8.7,8.6,8.7c4.8,0,8.7-3.8,8.7-8.7
	V13.8c0-0.3,0.4-1.3,1.3-1.3c1.2,0,1.5,1,1.5,1.3v15.3v0.5v8.8c0,7.4-6,13.2-13.4,13.2c-2.1,0-4-0.5-5.8-1.3
	c-0.6-0.4-0.9-1.2-0.6-1.8c0.3-0.7,1.1-0.9,1.8-0.7c1.4,0.7,3,1.1,4.6,1.1c5.9,0,10.6-4.7,10.6-10.5v-1.8c-2.1,2.4-5.2,4-8.7,4
	c-6.3-0.1-11.4-5.2-11.4-11.5V13.8z"/>
<g>
	<path class="st2" d="M112,22.3c-3.4,7.9-0.2,17.2,7.2,21.1c-0.3-0.1-0.5-0.2-0.8-0.3c-8-3.7-11.5-13.3-8-21.5
		c3.6-8.2,12.9-11.9,20.8-8.2c0.3,0.1,0.5,0.2,0.8,0.4C124.2,10.7,115.4,14.4,112,22.3z"/>
	<path class="st2" d="M134.7,31.7c-0.2-0.3-0.7-0.4-1-0.1c-1,0.8-2.7,1.7-4.6,1.7c-1.2,0-2.2-0.4-2.8-0.9c-0.1,0-0.2-0.1-0.2-0.1
		c0,0,0,0,0,0c0.3-0.5,0.5-1.1,0.5-1.7c0-0.6-0.2-1.2-0.5-1.8c-0.7,0.6-1,1.1-1,1.7l0,0h0c0-0.7-0.3-1.1-1-1.7
		c-0.3,0.5-0.5,1.1-0.5,1.8c0,0.6,0.2,1.2,0.5,1.7c-0.1,0-0.1,0.1-0.2,0.1c-0.7,0.5-1.7,0.9-2.8,0.9c-1.9,0-3.5-1-4.6-1.7
		c-0.3-0.3-0.8-0.2-1,0.1c-0.2,0.3-0.2,0.7,0.1,1c1.2,1,3.1,2.1,5.5,2.1c1.5,0,2.7-0.4,3.7-1.2c0.1-0.1,0.2-0.1,0.2-0.2
		c0.1,0.1,0.2,0.1,0.2,0.2c1,0.8,2.3,1.2,3.7,1.2c2.4,0,4.3-1.2,5.5-2.1C134.9,32.4,135,32,134.7,31.7z"/>
	<path class="st0" d="M132.8,20.9c-0.9-0.6-2.1-1-3.7-1c-1.7,0-3,0.7-4,1.3c-1.1-0.7-2.3-1.3-4-1.3c-1.5,0-2.8,0.4-3.7,1
		c-0.9,0.7-1.6,1.7-1.6,2.9c0,1.2,0.7,2.1,1.6,2.7c0.9,0.6,2,0.9,3.4,1.2l0.1,0c1.5,0.2,2.5,0.6,3.2,1.1c0,0,0.1,0,0.1,0.1
		c0.7,0.6,1,1.1,1,1.8c0,0.6-0.3,1.2-1,1.7c0.2,0.4,0.6,0.8,1,1.1c0.4-0.3,0.7-0.7,1-1.1c-0.6-0.5-1-1.1-1-1.7c0-0.7,0.3-1.1,1-1.8
		c0,0,0.1,0,0.1-0.1c0.6-0.5,1.7-0.9,3.1-1.1l0.1,0c1.3-0.2,2.5-0.5,3.4-1.2c0.9-0.5,1.6-1.5,1.6-2.7
		C134.4,22.6,133.8,21.6,132.8,20.9z M132.1,25.3c-0.7,0.5-1.7,0.8-3,1l-0.1,0c-1.4,0.2-2.5,0.6-3.6,1.2c-0.1,0-0.1,0.1-0.2,0.2
		c-0.1-0.1-0.1-0.1-0.2-0.2c-1-0.6-2.2-1-3.6-1.2l-0.1,0c-1.4-0.2-2.4-0.6-3-1c-0.6-0.5-0.9-0.9-0.9-1.5c0-0.6,0.3-1.2,0.9-1.7
		c0.6-0.5,1.6-0.9,2.8-0.9c1.4,0,2.4,0.7,3.4,1.4c0.1,0,0.1,0.1,0.2,0.1c0.1,0.1,0.2,0.1,0.4,0.1c0.1,0,0.3,0,0.4-0.1
		c0.1,0,0.1-0.1,0.2-0.1c1-0.7,2.1-1.4,3.4-1.4c1.2,0,2.2,0.3,2.8,0.9c0.6,0.5,0.9,1.1,0.9,1.7C133,24.4,132.7,24.8,132.1,25.3z"/>
</g>
</svg>
