<?xml version="1.0" encoding="iso-8859-1"?>
<!-- Generator: Adobe Illustrator 15.1.0, SVG Export Plug-In . SVG Version: 6.00 Build 0)  -->
<!DOCTYPE svg PUBLIC "-//W3C//DTD SVG 1.1//EN" "http://www.w3.org/Graphics/SVG/1.1/DTD/svg11.dtd">
<svg version="1.1" id="Layer_1" xmlns="http://www.w3.org/2000/svg" xmlns:xlink="http://www.w3.org/1999/xlink" x="0px" y="0px"
	 width="979.585px" height="254.014px" viewBox="0 0 979.585 254.014" style="enable-background:new 0 0 979.585 254.014;"
	 xml:space="preserve">
<g>
	<g>
		<path style="fill:#060808;" d="M496.437,76.845c-14.996,0-29.25-1.935-37.375-3.286c0.192,5.005,0.27,9.226,0.209,12.187
			c0.197,0.082,0.393,0.171,0.584,0.249c1.201,0.479,2.395,0.932,3.601,1.34c1.208,0.417,2.419,0.783,3.625,1.138
			c1.198,0.345,2.407,0.664,3.616,0.953c1.218,0.298,2.429,0.574,3.646,0.819c2.672,0.533,5.07,0.934,7.322,1.225
			c10.045,1.333,19.52,1.331,29.556,0.003c2.252-0.294,4.652-0.695,7.332-1.228c1.209-0.245,2.423-0.521,3.632-0.817
			c1.219-0.291,2.428-0.609,3.635-0.957c1.192-0.353,2.405-0.719,3.612-1.134c1.205-0.411,2.406-0.861,3.603-1.345
			c0.185-0.075,0.376-0.163,0.564-0.24c-0.061-2.963,0.018-7.185,0.213-12.193C525.684,74.91,511.43,76.845,496.437,76.845z"/>
		<path style="fill:#060808;" d="M496.437,73.612c15.226,0,29.66-2.022,37.514-3.355c1.006-22.075,3.865-55.353,6.474-62.027
			C525.267-0.061,496.437,0,496.437,0s-28.834-0.061-43.986,8.23c2.607,6.674,5.463,39.952,6.469,62.027
			C466.777,71.59,481.22,73.612,496.437,73.612z"/>
		<path style="fill:#060808;" d="M552.25,80.028c-0.462-4.04-4.115-6.937-8.152-6.473c-4.037,0.462-6.938,4.111-6.474,8.148
			c0,0,0.76,3.471-3.845,7.36c0,0-2.177,0.948-3.303,1.332c-1.247,0.429-2.501,0.807-3.752,1.179
			c-1.266,0.366-2.524,0.697-3.779,0.998c-1.246,0.302-2.5,0.59-3.76,0.843c-2.757,0.547-5.222,0.961-7.543,1.263
			c-5.157,0.683-10.27,1.027-15.197,1.027s-10.044-0.344-15.201-1.029c-2.321-0.301-4.79-0.714-7.536-1.262
			c-1.262-0.253-2.517-0.541-3.771-0.845c-1.251-0.299-2.511-0.629-3.765-0.994c-1.263-0.374-2.517-0.751-3.768-1.183
			c-1.12-0.384-3.314-1.33-3.314-1.33c-4.601-3.889-3.845-7.36-3.845-7.36c0.465-4.038-2.436-7.687-6.473-8.148
			c-4.038-0.464-7.691,2.433-8.153,6.473c-0.066,0.597-0.057,1.22,0.017,1.788l0.012,0.111l0.004,0.026
			c0,0.01,0.005,0.018,0.005,0.045l0.007,0.115c0.008,0.071,0.012,0.161,0.021,0.221l0.02,0.191
			c0.029,0.251,0.066,0.506,0.104,0.758c0.081,0.505,0.179,1.005,0.302,1.491c0.24,0.981,0.555,1.927,0.943,2.816
			c0.764,1.782,1.766,3.325,2.84,4.649c1.083,1.321,2.235,2.445,3.42,3.425c1.186,0.974,2.388,1.826,3.601,2.578
			c1.209,0.756,2.427,1.426,3.653,2.029c1.227,0.604,2.444,1.159,3.674,1.654c1.227,0.493,2.452,0.955,3.682,1.374
			c1.23,0.424,2.46,0.796,3.69,1.154c1.23,0.362,2.464,0.685,3.698,0.979c1.229,0.296,2.464,0.58,3.702,0.831
			c2.473,0.491,4.95,0.924,7.434,1.247c4.97,0.657,9.95,1.013,14.988,1.013s10.02-0.356,14.99-1.013
			c2.483-0.323,4.956-0.756,7.429-1.247c1.237-0.251,2.472-0.535,3.706-0.831c1.234-0.294,2.468-0.617,3.698-0.979
			c1.228-0.357,2.461-0.729,3.687-1.154c1.234-0.419,2.456-0.88,3.686-1.374c1.226-0.496,2.447-1.05,3.674-1.654
			c1.222-0.603,2.44-1.273,3.654-2.029c1.213-0.752,2.414-1.604,3.596-2.578c1.18-0.979,2.337-2.104,3.42-3.425
			c1.079-1.324,2.081-2.867,2.844-4.649c0.385-0.889,0.699-1.834,0.94-2.816c0.123-0.486,0.225-0.986,0.299-1.491
			c0.045-0.251,0.078-0.506,0.109-0.758l0.021-0.191c0.004-0.06,0.014-0.149,0.017-0.221l0.009-0.115
			c0-0.027,0.003-0.035,0.003-0.045l0.005-0.026l0.017-0.111C552.308,81.249,552.318,80.625,552.25,80.028z"/>
	</g>
	<g>
		<polygon style="fill:#060808;" points="185.36,229.091 136.846,229.091 129.003,247.476 137.854,252.317 143.854,237.373 
			178.356,237.373 184.331,252.249 193.176,247.409 		"/>
		<path style="fill:#060808;" d="M138.222,225.854h45.756l-22.876-53.635L138.222,225.854z M170.845,217.537h-19.48l9.742-23.279
			L170.845,217.537z"/>
		<path style="fill:#060808;" d="M945.737,212.605c4.314,3.511,6.872,6.882,6.872,10.519c0,6.072-4.716,9.043-11.188,9.043
			c-4.72,0-8.631-0.677-11.871-1.762c-1.851-0.652-3.568-1.323-5.284-2.234l3.829,11.009c4.417,1.255,10.053,2.427,16.22,2.667
			c12.8,0,20.154-6.32,20.154-17.358c0-10.236-7.42-16.755-14.597-23.063c-7.405-6.501-15.06-13.225-15.06-24.001
			c0-13.763,10.078-21.977,26.956-21.977c1.79-0.028,4.837,0.036,8.213,0.485l4.394-7.552c-3.793-1.196-10.065-1.862-14.883-1.862
			c-25.626,0-36.146,15.242-36.146,31.02c0,11.603,6.071,19.829,11.87,25.631C938.05,205.997,941.551,209.233,945.737,212.605z"/>
		<path style="fill:#060808;" d="M601.86,230.68c0-7.821,0-17.665,0-25.491v-13.485c0-37.224,0-42.35,0-43.963v-0.441l-10.943,5.026
			v87.941h37.91l4.095-8.918h-0.445c-0.405,0-2.692,0-4.047,0c-1.617,0-2.831,0-5.932,0c-6.339,0-18.072,0-20.099,0
			C601.86,231.349,601.86,231.219,601.86,230.68z"/>
		<polygon style="fill:#060808;" points="112.486,252.09 125.631,247.132 160.354,165.722 161.147,163.828 196.61,247.196 
			209.752,252.153 161.107,142.154 		"/>
		<path style="fill:#060808;" d="M482.151,197.59h34.129l4.07-8.858h-0.245c-0.944,0-3.372,0-11.467,0h-15.646v-20.633h14.434
			c7.952,0,15.243,0,16.322,0h0.019l-4-8.712h-37.615V197.59z"/>
		<path style="fill:#060808;" d="M524.556,231.349c-1.082,0-4.719,0-10.248,0c-6.339,0-18.071,0-21.315,0c0-0.943,0-1.888,0-2.696
			v-19.009h15.921c7.552,0,10.248,0,11.192,0h0.266c0-0.046,0-0.087,0-0.136l-3.983-8.672h-34.236v39.431h38.453l4.094-8.918
			H524.556z"/>
		<path style="fill:#060808;" d="M700.461,230.68c0-7.821,0-17.665,0-25.491v-13.485c0-37.224,0-42.35,0-43.963v-0.441
			l-10.945,5.026v87.941h37.911l4.095-8.918h-0.445c-0.404,0-2.693,0-4.045,0c-1.619,0-2.832,0-5.936,0c-6.337,0-18.068,0-20.097,0
			C700.461,231.349,700.461,231.219,700.461,230.68z"/>
		<path style="fill:#060808;" d="M819.785,145.853c-32.097,0-56.242,23.734-56.242,54.073c0,30.35,24.006,54.088,55.301,54.088
			c31.819,0,55.158-23.738,55.158-54.759v-0.132C874.002,168.912,851.342,145.853,819.785,145.853z M818.825,244.043
			c-25.268,0-45.052-19.37-45.052-44.097c0-25.142,19.683-44.094,45.791-44.094c25.198,0,44.204,18.684,44.204,43.459
			C863.769,224.812,844.444,244.043,818.825,244.043z"/>
		<path style="fill:#060808;" d="M727.496,243.512h-41.226V152.19l-10.763-4.945v0.495c0,1.483,0,6.873,0,43.963v13.485
			c0,39.921,0,45.314,0,46.529v0.673c0.679,0,14.572,0,30.481,0c8.487,0,17.501,0,25.589,0L727.496,243.512z"/>
		<path style="fill:#060808;" d="M819.564,159.097c-24.256,0-42.549,17.559-42.549,40.85c0,22.907,18.366,40.853,41.81,40.853
			c23.771,0,41.695-17.79,41.695-41.38C860.521,176.056,843.3,159.097,819.564,159.097z M848.514,199.926
			c0,17.533-11.466,31.293-29.272,31.293c-17.93,0-30.211-13.62-30.211-31.151c0-17.94,12.547-31.155,30.211-31.155
			c16.993,0,29.272,13.621,29.272,30.886V199.926z"/>
		<path style="fill:#060808;" d="M965.835,197.092c-5.67-5.258-10.254-8.896-12.547-11.457c-2.288-2.563-3.779-4.72-3.779-8.229
			c0-5.8,5.128-9.169,12.275-9.169c2.562,0,4.588,0.267,6.477,0.676c1.729,0.397,3.85,1.058,5.206,1.599l-3.959-11.382
			c-3.519-0.47-6.514-0.462-7.573-0.438c-14.955,0-23.876,7.001-23.876,18.732c0,9.307,6.774,15.265,13.946,21.561
			c7.725,6.783,15.709,13.793,15.709,25.504c0,12.907-8.771,20.609-23.461,20.609c-6.194-0.246-11.853-1.382-16.335-2.612
			l-4.608,7.929c5.132,2.398,13.703,3.6,20.943,3.6c20.497,0,35.332-11.872,35.332-29.407v-0.13
			C979.585,212.605,974.19,204.919,965.835,197.092z"/>
		<path style="fill:#060808;" d="M408.018,152.996c-5.807-3.238-12.549-4.861-18.349-5.534c-4.989-0.54-10.518-0.666-14.695-0.666
			c-6.077,0-14.164,0.397-17.674,0.805v0.27c0,2.297,0,6.609,0,43.833v13.485c0,39.921,0,45.314,0,46.937v0.168l10.123-4.649
			v-91.298l4.07-0.168c2.469-0.139,4.193-0.235,6.702-0.235c2.778,0,6.861,0.081,10.556,0.481c3.583,0.417,8.842,1.466,13.574,4.1
			c8.28,4.677,12.833,12.627,12.833,22.382c0,4.939-1.153,9.688-3.335,13.726c-2.443,4.299-5.93,7.752-10.089,9.991
			c-2.407,1.3-5.333,2.346-8.7,3.105c-3.51,0.801-10.503,1.183-10.568,1.183l-11.799,0.003v36.746l10.233,4.703v-0.237
			c0-1.212,0-7.016,0-28.188v-3.912c4.859-0.138,9.853-0.538,14.569-1.622c4.184-0.944,8.229-2.287,11.736-4.179
			c5.259-2.833,9.979-7.283,13.351-13.213c2.697-4.992,4.45-11.197,4.45-18.349C425.005,167.699,417.319,158.254,408.018,152.996z"
			/>
		<path style="fill:#060808;" d="M299.489,152.996c-5.807-3.238-12.546-4.861-18.344-5.534c-4.994-0.54-10.523-0.666-14.7-0.666
			c-6.076,0-14.164,0.397-17.67,0.805v0.27c0,2.297,0,6.609,0,43.833v13.485c0,39.921,0,45.314,0,46.937v0.259l10.171-4.672v-91.366
			l4.075-0.168c2.468-0.139,4.193-0.235,6.702-0.235c2.774,0,6.861,0.081,10.551,0.481c3.588,0.417,8.851,1.466,13.579,4.1
			c8.276,4.683,12.832,12.63,12.832,22.382c0,4.939-1.152,9.688-3.339,13.726c-2.444,4.299-5.93,7.752-10.089,9.991
			c-2.407,1.3-5.333,2.346-8.696,3.105c-3.522,0.807-10.502,1.183-10.568,1.183l-11.801,0.003v36.681l10.184,4.675v-0.144
			c0-1.212,0-7.016,0-28.188v-3.912c4.858-0.138,9.853-0.538,14.568-1.622c4.181-0.944,8.23-2.287,11.732-4.179
			c5.259-2.833,9.979-7.283,13.351-13.213c2.697-4.992,4.45-11.197,4.45-18.349C316.476,167.699,308.79,158.254,299.489,152.996z"/>
		<path style="fill:#060808;" d="M628.896,243.512h-41.224V152.19l-10.764-4.945v0.495c0,1.483,0,6.873,0,43.963v13.485
			c0,39.921,0,45.314,0,46.529v0.673c0.679,0,14.573,0,30.481,0c8.487,0,17.502,0,25.591,0L628.896,243.512z"/>
		<path style="fill:#060808;" d="M291.72,203.766c3.621-1.949,6.661-4.961,8.79-8.709c1.913-3.542,2.93-7.746,2.93-12.151
			c0-10.937-6.081-16.671-11.176-19.55c-4.255-2.372-9.064-3.328-12.35-3.708c-3.551-0.383-7.502-0.461-10.191-0.461
			c-2.477,0-4.176,0.099-6.526,0.229l-1.005,0.044v48.209h11.72c1.165-0.072,7.078-0.449,9.926-1.106
			C286.902,205.87,289.55,204.931,291.72,203.766z M272.375,198.98v-30.744c1.618-0.138,2.971-0.138,4.045-0.138
			c3.776,0,7.02,0.945,9.713,2.702c3.776,2.558,6.204,6.874,6.204,12.002v0.131c0,2.971-0.54,5.398-1.618,7.69
			c-1.079,2.292-2.832,4.041-4.585,5.259c-2.427,1.618-5.798,2.702-9.444,2.972C275.61,198.98,273.048,198.98,272.375,198.98z"/>
		<path style="fill:#060808;" d="M520.6,243.512h-41.693v-87.371h40.685l4.112-8.947c-6.862,0-16.687,0-26.253,0
			c-14.572,0-27.923,0-29.409,0v0.269c0,0.944,0,7.151,0,44.241v13.485c0,39.921,0,45.99,0,46.937v0.266c1.355,0,15.246,0,31.162,0
			c8.438,0,17.421,0,25.476,0L520.6,243.512z"/>
		<path style="fill:#060808;" d="M400.196,203.766c3.617-1.953,6.657-4.965,8.79-8.709c1.912-3.542,2.926-7.751,2.926-12.151
			c0-10.937-6.077-16.671-11.176-19.55c-4.259-2.372-9.065-3.328-12.346-3.708c-3.551-0.383-7.507-0.461-10.196-0.461
			c-2.48,0-4.176,0.099-6.53,0.229l-0.998,0.044v48.209h11.717c1.164-0.072,7.078-0.449,9.929-1.106
			C395.375,205.87,398.027,204.931,400.196,203.766z M380.899,198.98v-30.744c1.623-0.138,2.971-0.138,4.049-0.138
			c3.776,0,7.017,0.945,9.714,2.702c3.776,2.558,6.203,6.874,6.203,12.002v0.131c0,2.971-0.539,5.398-1.618,7.69
			c-1.083,2.292-2.836,4.041-4.585,5.259c-2.428,1.618-5.802,2.702-9.444,2.972C384.141,198.98,381.578,198.98,380.899,198.98z"/>
	</g>
	<g>
		<path style="fill:#060808;" d="M71.886,230.954c-3.776,0.536-7.286,0.665-11.731,0.665c-20.638,0-33.313-12.945-33.313-32.09
			c0-18.885,13.89-31.431,36.006-31.431c3.51,0,6.881,0.274,9.579,0.675c2.158,0.407,3.776,0.674,5.394,1.083h0.314l-4.017-10.642
			c-6.888-1.209-13.277-1.283-14.695-1.283c-26.779,0-44.084,16.387-44.084,41.751c0,24.966,16.787,42.402,40.819,42.402
			c7.912-0.102,13.822-0.858,18.067-1.703l4.102-10.78h-0.236C75.796,230.275,73.905,230.546,71.886,230.954z"/>
		<path style="fill:#060808;" d="M74.936,243.545c-8.032,1.634-16.076,1.785-18.64,1.785h-0.07
			c-25.986,0-44.134-18.77-44.134-45.647c0-26.914,19.022-44.995,47.33-44.995c1.43,0,7.863,0.076,14.92,1.286L79,147.453
			c-2.155-0.534-5.239-0.935-7.928-1.205c-2.963-0.27-5.255-0.396-8.762-0.396C21.847,145.853,0,169.717,0,199.529
			c0,33.305,24.683,54.484,57.857,54.484c4.454,0,7.556-0.139,12.815-0.817c2.697-0.396,6.604-1.21,8.495-1.749
			c0-0.036-0.003-0.086-0.003-0.126L74.936,243.545z"/>
	</g>
	<path style="fill:#060808;" d="M884.562,156.312c0.374,0.193,1.029,0.283,1.029,0.846c0.011,4.349-4.467,7.508-5.132,7.953
		l3.521,1.218l1.54,3.895c0.335-0.221,11.223-7.469,10.972-19.595c0.026-4.667-3.78-8.985-8.066-8.916h-0.098
		c-4.038,0-8.159,3.191-8.159,7.698C880.17,153,882.388,155.684,884.562,156.312z"/>
</g>
</svg>
