<svg version="1.1" id="Ebene_1" xmlns="http://www.w3.org/2000/svg" xmlns:xlink="http://www.w3.org/1999/xlink" x="0px" y="0px"
	 viewBox="0 0 1170 445" enable-background="new 0 0 1170 445">
<g id="layer1" transform="translate(-1047.6074,-285.16877)">
	<path id="path11358" d="M1967.683,299.874c-31.706,0.469-73.043,36.929-94.728,59.271c-21.687,22.348-44.538,55.538-58.178,77.414
		c-13.664,21.639-32.587,60.852-35.453,66.731c-2.871,5.881-5.77,9.686-10.407,11.57c0,0,4.39-18.323,5.614-22.792
		c1.198-4.704-0.155-10.622-5.68-13.209c-5.528-2.356-20.702-0.441-33.335,3.559c-12.632,3.995-21.327,20.459-29.156,35.041
		c-7.857,14.347-21.2,26.802-28.751,30.801c-7.549,3.764-13.137-1.162-13.21-6.576c-0.069-5.642,5.226-22.583,22.727-40.93
		c17.52-18.346,36.859-26.38,46.953-29.909c10.112-3.526,19.361-8.242,19.644-17.179c0.305-8.705-10.021-21.816-38.739-20.876
		c-28.743,0.706-67.702,29.606-76.453,39.014c-8.747,9.408-21.575,29.866-26.49,40.449c-4.938,10.583-8.964,28.003-9.789,30.118
		c-0.797,2.115-2.402,3.536-3.695,2.6c-1.269-0.706-5.114-1.217-8.077-0.274c-2.938,0.942-15.093,9.433-23.068,14.376
		c-7.972,4.702-10.532,0-7.665-5.41c2.894-5.645,43.04-68.227,47.982-78.578c4.935-10.113,6.89-22.099-15.95-21.628
		c-22.814,0.237-40.4,12.7-47.431,23.753c-5.786,9.173-43.67,61.396-57.358,74.333c-10.021,9.409-15.612-0.221-12.321-6.572
		c2.26-4.235,14.41-27.804,18.549-34.154c4.139-6.352,16.582-24.638,24.368-42.984c7.785-18.113-7.535-27.342-17.25-27.106
		c-9.738,0-77.198,14.107-79.738,14.58c-1.671,0.235-3.798-2.531-4.244-4.175c0.211,0.705-7.244-15.57-28.954-15.335
		c-27.048,0.469-52.14,21.387-62.556,32.446c-10.42,11.29-44.095,51.086-44.354,95.071c-0.26,43.982,34.493,53.142,46.747,52.907
		c22.885,0,35.806-8.483,50.717-23.066c6.305-6.349,13.762-15.989,18.205-23.75c23.053-39.283,29.065-62.816,24.575-74.811
		c-0.753-2.12,1.567-5.624,4.104-6.097c2.52-0.471,10.978-2.557,18.551-3.97c7.596-1.411,5.971,2.115,3.901,5.408
		c-16.466,27.282-39.208,68.166-38.877,93.566c0.211,15.993,10.956,30.624,32.922,30.39c21.991-0.238,39.908-16.941,42.847-18.822
		c2.939-1.648,6.297-4.283,6.364,0.889c0.071,4.938,8.771,20.224,25.257,19.986c16.488-0.234,29.839-8.426,43.667-18.069
		c13.827-9.405,35.085-32.458,36.754-35.042c1.646-2.59,2.898-1.652,2.944,1.646c0.236,16.932,17.067,40.002,35.25,39.766
		c18.157-0.237,29.014-8.969,47.43-21.902c-2.515,1.642-22.937,21.399-31.689,31.279c-4.373,4.936-11.736,13.613-18.139,24.434
		c-6.42,10.822-11.844,24.004-12.315,37.644c-0.894,27.52,20.877,40.005,35.249,39.765c14.37-0.233,32.833-8.912,49.485-28.199
		c36.218-41.863,50.957-115.006,52.09-119.711c0.397-1.878,3.737-4.748,5.405-6.16c1.67-1.176,3.786-0.477,3.834,3.284
		c0.327,24.228,10.394,50.368,37.441,49.895c27.047-0.468,35.331-13.632,38.672-16.218c3.363-2.588,15.397-17.879,17.044-20.465
		c1.67-2.59,2.834-3.526,3.422,0c0.703,4.232,7.839,18.783,13.414,26.077c5.597,7.059,19.654,13.642,31.484,12.934
		c11.831-0.465,23.548-8.226,26.488-10.812c2.918-2.588,4.925-1.382,5.886-0.207c1.014,1.645,10.327,10.57,25.12,10.333
		c24.51-0.233,48.646-29.424,59.891-41.889c14.416-15.756,77.082-82.552,72.893-79.261c2.778-2.115,9.208-8.004,12.595-8.004
		c3.361,0,5.987,4.938,6.434,7.528c0.472,2.351-0.373,5.413-4.586,7.525c-2.518,1.411-13.977,8.002-24.985,15.058l-3.282,2.12
		c-7.386,4.706-11.242,7.531-15.263,11.297c-10.021,9.407-11.535,22.146-11.845,31.553c-0.302,9.409,3.802,29.626,17.934,43.735
		c14.137,14.113,45.187,10.812,57.016-4.243c15.807-19.99,32.196-56.682,32.102-64.682c0,0,0.977-3.535,4.176-4.241
		c19.474-3.765,22.631-14.144,27.173-21.905c4.538-7.757,10.35-21.642,10.607-27.992c0.33-7.764-8.18-8.875-11.566-9.584
		c-3.391-0.707-11.373,0.908-15.609,1.851c-4.207,0.941-6.822,0.032-6.773-3.968c0.116-11.056-12.778-38.116-32.648-37.646
		c-19.854,0.235-58.289,37.883-69.131,48.936c-10.842,11.289-55.388,60.885-62.488,66.526c-7.126,5.413-6.811-1.664-6.435-4.723
		c0.401-3.056,21.467-41.148,23.138-43.736c1.646-2.588,5.292-12.67,1.435-16.903s-13.155-4.501-27.103-3.56
		c-13.948,0.941-26.484,12.702-32.718,22.106c-6.207,9.173-19.382,32.715-28.062,47.298c-8.679,14.348-18.936,7.075-19.098-4.448
		c-0.168-11.291,11.053-28.945,25.185-45.176c14.159-16.226,41.93-27.026,51.2-30.32c9.265-3.059,12.129-5.691,13.275-13.689
		c1.179-7.998-10.77-17.176-16.698-18.823c-5.953-1.646-26.265-4.226-52.701,9.652c-26.461,13.878-48.098,38.623-60.917,60.027
		c-12.815,21.404-16.643,53.107-17.043,54.756c-0.398,1.648,0.38,2.599-1.642,2.599c-2.026-0.232-2.917-2.588-6.778,0
		c-3.221,2.118-6.7,6.331-16.837,6.096c-8.489-0.234-11.085-7.244-11.226-17.59c-0.095-6.588,3.913-24.044,5.133-28.75
		c1.198-4.701,4.504-8.441,8.688-11.496c4.8-3.528,69.587-47.494,100.891-76.66c7.127-6.582,14.305-14.391,21.15-22.858
		c23.33-28.224,42.76-62.516,42.571-76.865C2002.678,326.23,1999.388,299.637,1967.683,299.874z M1195.415,329.511
		c-22.416,0.235-62.508,11.985-76.386,23.75c-13.875,11.996-24.208,41.651-24.162,51.061c0.047,9.172,3.496,20.699,12.39,20.467
		c12.678-0.47,31.587-14.102,44.215-21.629c12.63-7.76,40.861-27.104,59.89-27.104c29.588-0.235,42.794,20.463,42.985,47.98
		c0.165,27.284-14.012,61.632-45.106,94.796c-31.067,33.166-79.168,44.5-90.553,47.091c-11.406,2.59-46.482,10.079-51.542,11.021
		c-5.079,0.706-8.797,9.195-8.348,16.017c2.328,33.397,39.965,40.41,56.879,40.179c16.911,0,74.353-6.781,123.065-56.879
		c69.551-71.737,65.139-135.277,65.091-140.45c-0.024-4.941-1.104-48.421-26.625-74.059
		C1251.688,336.108,1217.806,329.511,1195.415,329.511z M1931.68,364.621c4.435-0.221,5.966,3.786,3.969,7.668
		c-4.728,9.407-12.759,20.264-22.451,31.552c-19.707,22.814-46.317,46.076-65.979,57.837c-5.031,3.056-3.364-0.22-2.119-2.806
		c10.723-22.347,60.382-80.71,81.173-92.47C1928.367,365.224,1930.202,364.695,1931.68,364.621z M1208.417,381.938
		c-3.387,0-7.166,2.622-10.951,7.323c-3.764,4.705-75.81,114.519-77.479,118.753c-1.648,4.234-10.065,15.29-9.994,25.874
		c0.07,10.584,8.145,16.934,15.744,16.702c7.618,0,13.112-0.011,35.386-22.591c48.521-49.158,58.903-113.572,58.385-129.566
		C1218.987,382.204,1213.051,381.938,1208.417,381.938z M1366.185,492.818c0.426-0.058,0.833,0.183,1.231,0.89
		c1.366,2.354,7.104,5.62,10.68,6.093c1.269,0.237,2.99,0.015,2.189,2.602c-0.774,2.353-14.523,31.046-25.53,44.216
		c-0.587,0.703-1.189,1.416-1.781,2.12c-18.909,20.228-20.663-0.284-17.866-8.278c4.891-13.88,21.863-39.473,28.543-45.588
		C1364.696,493.843,1365.47,492.92,1366.185,492.818z M2110.118,551.614c1.066,0.148,1.304,1.079-0.345,3.902
		c-3.317,5.409-6.139,14.811-9.922,16.22c-3.788,1.176-11.403,0.951-9.377-6.573c0.986-3.999,4.279-6.781,7.595-8.896
		c3.293-2.117,6.612-3.529,7.459-3.766C2107.168,552.153,2109.055,551.47,2110.118,551.614z M1698.351,603.086
		c0.742,0.119,0.966,1.04,0.342,2.805c-1.199,3.29-4.426,18.108-8.966,25.87c-4.539,7.762-20.317,31.984-28.266,36.688
		c-7.976,4.703-13.041,1.864-8.149-10.133c1.368-3.055,3.402-6.843,5.752-10.605c6.21-9.882,14.548-20.232,17.865-24.232
		c4.562-5.646,17.933-18.549,17.933-18.549C1696.328,603.641,1697.611,602.97,1698.351,603.086z"/>
</g>
</svg>
