<svg xmlns="http://www.w3.org/2000/svg" xmlns:xlink="http://www.w3.org/1999/xlink" width="323" class="headerLogo" height="57" viewBox="0 0 323 57">
  <g fill="none">
    <path fill="#000" d="M90.252 24.545c-.25-5.172-2.748-8.217-7.245-8.217-2.54 0-4.664.834-6.371 3.21-1.665 2.296-2.457 5.633-2.457 9.428 0 3.463.792 6.715 2.249 8.843 1.707 2.586 3.997 3.629 6.829 3.629 2.748 0 4.33-.96 4.496-2.461.167-1.252.167-3.63.167-5.422 0-2.336-.25-2.628-2.373-2.795l-2.124-.167-.042-1.168c1.375 0 4.456.125 6.246.125s3.914-.083 4.997-.125v1.126c-2.165.334-2.498.459-2.581 1.46-.167 1.71-.084 3.212-.084 4.463.042 2.127.125 3.295.29 4.255-.956.208-2.955.876-4.121 1.168-1.457.417-3.497.834-5.537.834-5.04 0-8.245-1.335-10.494-4.213-1.748-2.252-2.664-5.506-2.664-9.343 0-5.548 2.248-9.886 6.204-12.221 2.248-1.377 4.538-1.877 7.412-1.877 3.789 0 6.162 1.292 7.12 2.252l.874-2.086 1 .334c-.334 1.46-.792 5.88-.625 8.968h-1.166zm30.751 9.676c-.292 1.877-.708 5.381-.958 8.051-.749-.084-2.623-.126-5.038-.168-2.415 0-5.538-.04-8.619-.04-1.832 0-5.08.124-6.12.124v-1.168l2.372-.25c.916-.083 1.208-.334 1.291-1 .125-1.336.208-4.047.208-7.509v-8.885c0-3.295-.042-4.588-.083-5.464 0-.667-.292-.876-1.166-.959l-2.165-.167.042-1.168c1.124 0 3.914.125 5.412.125 1.458 0 3.29-.125 5.622-.125l.125 1.168-2.332.208c-.875.084-1.124.334-1.166 1.085-.125 1.543-.208 3.712-.208 6.882v7.383c0 3.462.041 6.674.125 7.76.042.457.333.708 3.04.708 4.371 0 5.704-.293 6.578-1.669.833-1.21 1.416-2.96 1.915-4.964l1.125.042zm13.682-14.724c-1.083 1.835-1.916 5.047-1.916 9.135 0 4.087.958 7.633 2.166 9.593 1.416 2.253 3.373 3.212 5.663 3.212 2.123 0 3.996-.834 5.371-3.128 1.082-1.877 1.79-5.298 1.79-9.302 0-3.879-.708-7.257-1.916-9.426-1.249-2.128-3.081-3.296-5.579-3.296-2.331 0-4.247 1.085-5.579 3.212m17.821 8.968c0 9.552-4.996 14.265-12.242 14.265-7.286 0-12.241-4.797-12.241-13.598 0-7.675 4.33-14.056 12.533-14.056 7.745 0 11.95 6.048 11.95 13.39m9.113 4.88c-.167 5.214 2.123 8.05 6.412 8.05 2.789 0 5.204-1.544 5.204-5.005 0-1.752-.708-3.045-2.29-3.962-1.248-.753-4.496-2.338-6.412-3.422-2.831-1.585-3.914-3.837-3.914-6.465 0-4.589 3.33-7.466 8.119-7.466 2.375 0 4.455.75 5.414 1.668l.708-1.835 1.04.25c-.582 3.254-.666 6.548-.666 8.05l-1.166.127c.042-4.797-2.414-6.966-5.454-6.966-2.748 0-4.455 1.834-4.455 4.712 0 1.877.79 3.337 2.872 4.463 3.04 1.627 5.205 2.628 6.705 3.63 2.164 1.168 3.288 2.878 3.288 5.63 0 5.34-4.33 7.925-9.66 7.925-2.54 0-5.496-.833-7.203-1.627.25-2.334.29-5.38.333-7.508l1.125-.25zm24.395 0c-.167 5.214 2.123 8.05 6.413 8.05 2.788 0 5.205-1.544 5.205-5.005 0-1.752-.708-3.045-2.29-3.962-1.25-.753-4.498-2.338-6.414-3.422-2.83-1.585-3.913-3.837-3.913-6.465 0-4.589 3.33-7.466 8.12-7.466 2.373 0 4.453.75 5.412 1.668l.708-1.835 1.04.25c-.582 3.254-.666 6.548-.666 8.05l-1.166.127c.042-4.797-2.414-6.966-5.454-6.966-2.748 0-4.455 1.834-4.455 4.712 0 1.877.791 3.337 2.874 4.463 3.04 1.627 5.203 2.628 6.703 3.63 2.164 1.168 3.29 2.878 3.29 5.63 0 5.34-4.332 7.925-9.66 7.925-2.54 0-5.497-.833-7.205-1.627.251-2.334.292-5.38.334-7.508l1.124-.25zm40.176 8.842c-2.582 0-4.58-.125-6.828-.125-2.125 0-3.956.125-5.954.125l-.125-1.168a52.673 52.673 0 0 0 2.831-.333c1.041-.084 1.457-.459 1.5-1.419.124-1.46.206-5.63.206-7.925 0-.792-.165-1.376-.499-2.086-.792-1.71-4.33-7.799-6.037-10.469-1.084-1.752-1.666-1.96-3.998-2.044l-.04-1.126c.79 0 3.038.125 4.912.125 2.291 0 4.081-.125 5.497-.125l.165 1.126-1.832.21c-.624.04-.708.291-.415.875.916 2.002 3.872 7.341 5.662 10.595 2.874-5.13 4.414-8.259 5.247-10.178.374-.876.25-1.168-.334-1.21a18.192 18.192 0 0 0-2.33-.25l.124-1.168c.96 0 2.873.125 4.33.125 1.25 0 2.665-.125 4.082-.125l.083 1.168c-2.416.083-2.999.417-4.123 2.044-1.499 2.211-4.288 7.132-5.87 10.136a4.113 4.113 0 0 0-.5 2.043c-.042 2.42-.042 6.966.124 8.801.084.584.25.835 1.041.918.624.042 1.583.167 2.915.292l.166 1.168zm19.768-7.674c0 2.71.042 4.295.125 5.672.042.459.458.71 2.123.71 3.373 0 5.163-.919 6.08-2.254.666-1 .999-2.502.999-4.213 0-1.876-.375-3.086-1.249-4.087-.999-1.043-2.749-1.752-5.997-1.752-.832 0-1.623.041-2.081.125v5.799zm0-7.134c.499.043 1.249.043 2.081.043 3.707 0 5.871-1.335 5.871-5.59 0-1.417-.29-2.544-.791-3.294-.665-1.003-1.832-1.67-4.496-1.67-2.166 0-2.498.25-2.498.794a66.984 66.984 0 0 0-.167 4.92v4.798zm-7.662 13.64c2.749-.125 3.374-.292 3.415-1.043.082-1.292.166-3.211.166-5.755v-11.013c0-2.628 0-4.046-.125-5.463-.041-.584-.707-.834-3.414-.96v-1.168c1.333 0 3.123.125 5.08.125 1.957 0 4.33-.125 6.536-.125 3.833 0 5.498.5 6.747 1.668 1.082.96 1.623 2.461 1.623 4.088 0 3.213-1.832 4.713-3.414 5.465-.916.417-1.791.626-2.79.876v.166c2.331.293 4.247.75 5.579 1.668 1.375.919 2.333 2.378 2.333 4.965 0 2.71-1.166 4.587-3.29 5.964-1.957 1.294-4.913 1.669-7.87 1.669l-5.579-.084c-1.166 0-3.622.084-5.038.125l.041-1.168zm35.944-21.523c-1.084 1.835-1.915 5.047-1.915 9.135 0 4.087.957 7.633 2.164 9.593 1.416 2.253 3.373 3.212 5.663 3.212 2.124 0 3.997-.834 5.372-3.128 1.082-1.877 1.79-5.298 1.79-9.302 0-3.879-.708-7.257-1.915-9.426-1.25-2.128-3.081-3.296-5.58-3.296-2.331 0-4.246 1.085-5.58 3.212m17.82 8.968c0 9.552-4.995 14.265-12.24 14.265-7.287 0-12.242-4.797-12.242-13.598 0-7.675 4.33-14.056 12.534-14.056 7.744 0 11.949 6.048 11.949 13.39m5.418-12.848c1.25 0 3.54.125 5.289.125 1.666 0 3.414-.125 5.372-.125l.207 1.168-1.956.25c-.584.042-.708.334-.46.835.709 1.251 1.584 3.002 4.457 7.883 2.456-3.629 3.956-6.048 4.705-7.508.458-.918.29-1.127-.666-1.252l-1.915-.208.25-1.168c1.54 0 3.288.125 4.288.125 1.832 0 3.332-.125 4.705-.125l.167 1.168c-3.165.208-3.748.542-5.164 2.294-.957 1.126-2.623 3.42-5.621 7.884 4.123 7.382 6.329 10.886 7.288 12.388.666.917 1.33 1.418 2.705 1.543l1.583.125v1.168c-1.082 0-3.248-.125-5.33-.125-2.081 0-3.997.125-5.828.125l-.084-1.168c2.373-.208 2.623-.459 2.248-1.21-.792-1.46-1.707-3.045-5.372-9.676-2.123 3.378-4.205 6.756-5.12 8.634-.708 1.376-.543 1.918.79 2.044l2.04.208.209 1.168c-1.166 0-2.832-.125-4.914-.125-2.123 0-3.247.125-4.872.125l-.165-1.168c2.122-.167 3.08-.459 4.246-1.877 1.166-1.418 4.539-6.423 7.038-10.303-3.998-7.132-5.58-9.76-6.247-10.719-.707-1.002-1.54-1.252-3.79-1.335l-.083-1.168zm-267.484 22.122c-.087 1.736 4.316.386 4.841.027-.949-.764-4.761-1.642-4.841-.027M37.928 24.308c.491 8.319-4.053 12.003-5.717 11.69-.748-.143-1.064-1.295-1.045-2.163.021-.866.33-2.447.947-3.876.7-1.625 2.474-4.06 4.322-5.54-.406-2.648-3.158-6.89-7.539-.845 2.69 5.312 2.203 11.848-.51 11.797-2.715-.05-3.203-6.485-.515-11.797-4.38-6.044-7.133-1.803-7.538.845 1.848 1.48 3.622 3.915 4.323 5.54.616 1.429.925 3.01.945 3.876.02.868-.296 2.02-1.045 2.163-1.663.313-6.207-3.371-5.715-11.69-6.965-3.232-4.427 8.158 2.51 13.133 4.295-2.292 6.55-.616 6.57.44.02 1.06-1.76 2.708-6.665.373-2.047 1.715.868 3.728 7.323 3.738h.035c6.455-.01 8.944-2.023 6.897-3.738-4.902 2.335-6.683.687-6.663-.372.02-1.057 2.273-2.733 6.57-.441 6.936-4.975 9.473-16.365 2.51-13.133M24.155 34.6c.825-.077.315-2.47-.214-3.97-.735-2.087-3.034-4.943-3.733-5.361-.097 1.35.213 3.908.846 5.493.772 1.933 2.276 3.917 3.101 3.838m8.672-3.97c-.527 1.5-1.04 3.893-.214 3.97.825.079 2.33-1.903 3.1-3.838.634-1.586.945-4.141.849-5.493-.702.419-3 3.275-3.735 5.362m-4.442 3.117c1.45.021 1.764-5.278 0-9.069-1.764 3.791-1.443 9.05 0 9.07m-1.61 3.991c-.08-1.615-3.894-.737-4.842.027.526.359 4.93 1.709 4.842-.027"></path>
    <g transform="translate(0 .638)">
      <path fill="#000" d="M36.093 37.276c2.835 2.439-1.181 5.462-7.691 5.466h-.037c-6.509-.004-10.525-3.027-7.688-5.466-10.636-6.433-9.449-19.144-1.764-14.438.1-.079.671-3.541 3.878-4.034 2.706-.417 4.947 2.454 5.594 3.339.645-.885 2.887-3.756 5.592-3.339 3.207.493 3.778 3.955 3.877 4.034 7.686-4.706 8.873 8.005-1.761 14.438m-9.458-22.388a1.465 1.465 0 1 1 0 2.93 1.465 1.465 0 0 1 0-2.93m1.832-3.144a1.464 1.464 0 1 1-1.466 1.464c0-.81.656-1.464 1.466-1.464m3.207 4.61a1.465 1.465 0 1 1-2.93-.001 1.465 1.465 0 0 1 2.93.001m-3.428-7.838c-11.072 0-18.838 8.124-18.838 19.917 0 11.791 7.766 19.667 18.838 19.667 11.073 0 19.048-8.001 19.048-19.792 0-11.792-7.975-19.792-19.048-19.792"></path>
      <mask id="z">
        <path d="M322.712 56v-55.637h-267.072v55.637h-55.64v-55.638h55.64z"></path>
      </mask>
      <path fill="#000" d="M28.377 49.234c-11.559 0-20.928-9.369-20.928-20.926.001-11.558 9.371-20.928 20.928-20.928s20.926 9.37 20.926 20.928c0 11.557-9.369 20.926-20.926 20.926zm26.193-18.066c-.399-1.65-.399-4.324 0-5.975l.967-3.995c.4-1.652-.395-3.809-1.775-4.819l-3.34-2.447c-1.383-1.012-3.123-3.06-3.89-4.578l-1.864-3.674c-.768-1.518-2.78-2.667-4.495-2.564l-4.154.248c-1.713.101-4.38-.363-5.957-1.039l-3.816-1.634c-1.576-.675-3.865-.278-5.113.89l-3.02 2.825c-1.249 1.168-3.593 2.503-5.24 2.987l-3.989 1.171c-1.647.484-3.14 2.242-3.337 3.927l-.475 4.082c-.197 1.686-1.124 4.201-2.07 5.615l-2.292 3.43c-.947 1.415-.947 3.711 0 5.126l2.293 3.43c.946 1.414 1.873 3.93 2.07 5.615l.475 4.081c.196 1.685 1.69 3.444 3.337 3.927l3.987 1.172c1.648.481 3.992 1.82 5.241 2.987l3.02 2.825c1.248 1.165 3.537 1.566 5.113.891l3.817-1.635c1.576-.675 4.244-1.14 5.957-1.039l4.154.248c1.714.103 3.727-1.046 4.495-2.564l1.861-3.675c.768-1.517 2.508-3.566 3.89-4.576l3.341-2.448c1.38-1.01 2.175-3.167 1.775-4.819l-.967-3.996z" mask="url(#b)"></path>
    </g>
  </g>
</svg>
