<svg id="icon-iherblogo" viewBox="0 0 56 28" width="100%" height="100%">
    <path d="M2.734 9.843c-0.553 0-1.013 0.196-1.368 0.581-0.343 0.373-0.517 0.909-0.517 1.593v8.242c0 0.672 0.171 1.208 0.509 1.594 0.354 0.404 0.817 0.609 1.375 0.609 0.552 0 1.017-0.198 1.382-0.588 0.355-0.381 0.535-0.925 0.535-1.616v-8.327c0-0.631-0.181-1.14-0.539-1.514-0.364-0.382-0.827-0.576-1.379-0.576z"></path>
    <path d="M4.052 6.149c-0.372-0.307-0.804-0.462-1.285-0.462-0.505 0-0.952 0.173-1.327 0.512-0.392 0.352-0.591 0.804-0.591 1.344 0 0.585 0.197 1.051 0.586 1.386 0.369 0.318 0.817 0.479 1.331 0.479 0.503 0 0.943-0.165 1.307-0.488 0.383-0.338 0.577-0.802 0.577-1.377 0-0.596-0.201-1.065-0.599-1.394z"></path>
    <path d="M17.656 5.538c-0.597 0-1.090 0.21-1.466 0.624-0.362 0.402-0.546 0.983-0.546 1.726v3.981h-5.885v-3.981c0-0.752-0.189-1.336-0.563-1.738-0.382-0.406-0.88-0.612-1.481-0.612-0.616 0-1.114 0.211-1.482 0.629-0.352 0.401-0.53 0.98-0.53 1.721v12.19c0 0.743 0.18 1.325 0.537 1.73 0.371 0.42 0.867 0.633 1.476 0.633 0.593 0 1.090-0.208 1.477-0.619 0.376-0.402 0.567-0.989 0.567-1.744v-4.751h5.885v4.751c0 0.744 0.181 1.325 0.537 1.73 0.371 0.42 0.867 0.633 1.475 0.633 0.596 0 1.092-0.208 1.477-0.619 0.376-0.402 0.567-0.989 0.567-1.744v-12.19c0-0.752-0.189-1.336-0.562-1.738-0.382-0.406-0.88-0.612-1.482-0.612z"></path>
    <path d="M26.575 12.733c0.632 0 1.122 0.193 1.498 0.591 0.311 0.328 0.52 0.814 0.622 1.448h-4.213c0.12-0.622 0.338-1.105 0.652-1.441 0.377-0.403 0.848-0.599 1.442-0.599zM31.583 16.94c0.579-0.296 0.872-0.906 0.872-1.811 0-0.853-0.221-1.698-0.657-2.511-0.441-0.825-1.109-1.505-1.987-2.019s-1.934-0.775-3.14-0.775c-0.92 0-1.774 0.15-2.54 0.448-0.775 0.304-1.437 0.745-1.968 1.311-0.529 0.564-0.936 1.248-1.209 2.032-0.27 0.772-0.407 1.619-0.407 2.517 0 1.924 0.564 3.475 1.676 4.609 1.115 1.143 2.683 1.723 4.66 1.723 0.859 0 1.634-0.115 2.302-0.342 0.671-0.225 1.24-0.517 1.691-0.868 0.455-0.352 0.805-0.732 1.040-1.131 0.248-0.423 0.368-0.796 0.368-1.141 0-0.538-0.234-0.855-0.428-1.026-0.271-0.237-0.614-0.357-1.021-0.357-0.382 0-0.695 0.1-0.929 0.296l-0.019 0.017c-0.343 0.323-0.635 0.589-0.866 0.791-0.214 0.186-0.445 0.359-0.69 0.515-0.226 0.146-0.465 0.255-0.708 0.324-0.246 0.070-0.524 0.105-0.825 0.105-0.436 0-0.823-0.104-1.184-0.317-0.355-0.21-0.635-0.519-0.855-0.945-0.164-0.318-0.27-0.677-0.318-1.074h5.175c0.84 0 1.483-0.123 1.967-0.373z"></path>
    <path d="M41.039 10.342c-0.636-0.338-1.303-0.51-1.983-0.51-0.715 0-1.304 0.189-1.748 0.561-0.176 0.146-0.351 0.322-0.523 0.527-0.062-0.163-0.138-0.309-0.229-0.438-0.207-0.296-0.62-0.65-1.412-0.65-0.696 0-1.864 0.311-1.864 2.394v8.022c0 0.69 0.175 1.232 0.52 1.612 0.358 0.393 0.817 0.592 1.365 0.592 0.55 0 1.014-0.195 1.379-0.581 0.357-0.378 0.537-0.924 0.537-1.623v-2.405c0-0.852 0.028-1.578 0.084-2.161 0.053-0.566 0.149-1.055 0.284-1.453 0.122-0.355 0.285-0.619 0.486-0.784 0.338-0.28 0.891-0.31 1.685-0.053 0.597 0.19 0.788 0.216 0.907 0.216 0.399 0 0.769-0.156 1.103-0.466 0.332-0.313 0.508-0.728 0.508-1.2 0-0.466-0.191-1.123-1.099-1.601z"></path>
    <path d="M51.339 16.11c0 1.061-0.23 1.875-0.684 2.419-0.44 0.526-0.941 0.782-1.533 0.782-0.722 0-1.287-0.25-1.726-0.766-0.452-0.528-0.681-1.318-0.681-2.35 0-0.714 0.112-1.333 0.333-1.84 0.213-0.486 0.502-0.858 0.861-1.108 0.357-0.248 0.753-0.368 1.213-0.368 0.44 0 0.812 0.118 1.138 0.36 0.336 0.25 0.592 0.602 0.782 1.077 0.197 0.491 0.297 1.095 0.297 1.793zM52.654 10.594c-0.793-0.497-1.724-0.749-2.768-0.749-0.906 0-1.683 0.168-2.312 0.5-0.335 0.178-0.668 0.399-0.996 0.662v-3.369c0-0.636-0.158-1.144-0.467-1.51-0.329-0.391-0.792-0.59-1.377-0.59-0.561 0-1.026 0.215-1.347 0.621-0.304 0.385-0.452 0.91-0.452 1.605v12.58c0 0.652 0.161 1.166 0.477 1.526 0.328 0.374 0.785 0.572 1.322 0.572 0.531 0 0.978-0.188 1.328-0.56 0.194-0.206 0.334-0.463 0.419-0.767 0.034 0.033 0.066 0.064 0.097 0.093 0.211 0.201 0.473 0.399 0.776 0.588 0.312 0.196 0.691 0.354 1.126 0.471 0.433 0.116 0.895 0.174 1.373 0.174 0.789 0 1.528-0.163 2.197-0.484 0.665-0.323 1.236-0.783 1.697-1.367 0.458-0.575 0.811-1.262 1.049-2.043 0.235-0.771 0.354-1.624 0.354-2.533 0-1.241-0.216-2.336-0.642-3.254-0.435-0.939-1.059-1.669-1.856-2.168z"></path>
    <path d="M53.498 6.848h0.15c0.176 0 0.318-0.058 0.318-0.2 0-0.125-0.092-0.208-0.293-0.208-0.084 0-0.143 0.008-0.176 0.017zM53.49 7.623h-0.318v-1.368c0.126-0.025 0.301-0.041 0.528-0.041 0.26 0 0.377 0.041 0.477 0.1 0.075 0.058 0.134 0.167 0.134 0.3 0 0.15-0.117 0.267-0.285 0.317v0.017c0.134 0.050 0.209 0.15 0.251 0.333 0.042 0.208 0.067 0.292 0.1 0.342h-0.344c-0.041-0.050-0.067-0.175-0.109-0.333-0.025-0.15-0.109-0.217-0.285-0.217h-0.151zM52.644 6.906c0 0.609 0.453 1.093 1.072 1.093 0.603 0 1.046-0.484 1.046-1.084 0-0.609-0.443-1.101-1.055-1.101s-1.064 0.492-1.064 1.093zM55.115 6.906c0 0.776-0.611 1.385-1.407 1.385-0.787 0-1.416-0.609-1.416-1.385 0-0.759 0.628-1.368 1.416-1.368 0.796 0 1.407 0.609 1.407 1.368z"></path>
</svg>
