<svg id="Layer_1" data-name="Layer 1" xmlns="http://www.w3.org/2000/svg" viewBox="0 0 541.51 133.52"><defs><style>.cls-1{fill:#101820;}.cls-2{fill:#ff4438;}</style></defs><title>Artboard 1</title><path class="cls-1" d="M136.19,82.89V37.41h-6.56V83c-.07,4.43.21,10.41,8.7,10.41.93,0,1.86-.08,2.71-.16V87C137.62,87,136.26,87,136.19,82.89Z"></path><path class="cls-1" d="M491.48,59h-.05L478.69,82.93l-.23.17-10.86-24,0-.05h-7.69L474.27,90.8l-3.91,8.67c-1.77,3.32-3.35,4.24-5.26,4.24a6.84,6.84,0,0,1-1.08-.09,15.77,15.77,0,0,1-3.83-1.2l-.1,0-.74,5.4v.06l.05,0a16.16,16.16,0,0,0,5,1.76,12.67,12.67,0,0,0,1.69.12c5.42,0,8-4,10.31-8.47L499,59l.07-.12Z"></path><path class="cls-1" d="M155,42a4.06,4.06,0,1,1-4.14,4.06A4.05,4.05,0,0,1,155,42Zm-3.08,17.37h6.16V92.81h-6.16Z"></path><path class="cls-1" d="M155,50.28a4.23,4.23,0,1,0-4.3-4.23A4.22,4.22,0,0,0,155,50.28Zm0-8.12a3.89,3.89,0,1,1-4,3.89A3.89,3.89,0,0,1,155,42.16Z"></path><path class="cls-1" d="M151.77,93h6.5V59.19h-6.5Zm.34-33.46h5.82V92.64h-5.82Z"></path><path class="cls-1" d="M199.79,40.81a15.42,15.42,0,0,0-10.57-4.17,14.65,14.65,0,0,0-14.6,14.67v7.88h-8v6h8V93h6.28V65.16H195v-6H180.9v-8.1a8.64,8.64,0,0,1,8.7-8.56,8.89,8.89,0,0,1,6,2.59l.12.11,4.22-4.3Z"></path><path class="cls-1" d="M214.11,58.06a17.82,17.82,0,0,0-17.61,18,18.08,18.08,0,0,0,18.06,18.06h.16c1.29,0,9.53-.26,15.38-6.68l.1-.12-4.44-4.4-.13-.13-.12.15a14.35,14.35,0,0,1-11.1,5.28,11.73,11.73,0,0,1-11.62-10.79h28.83l0-.15a8.54,8.54,0,0,0,.08-1C231.72,66.23,223.82,58.06,214.11,58.06ZM203.36,71.89a11.19,11.19,0,0,1,21.41,0Z"></path><path class="cls-1" d="M270.45,40.81a15.4,15.4,0,0,0-10.56-4.17,14.65,14.65,0,0,0-14.6,14.67v7.88h-8v6h8V93h6.27V65.16h14.06v-6H251.56v-8.1a8.65,8.65,0,0,1,8.71-8.56,8.88,8.88,0,0,1,6,2.59l.12.11,4.22-4.3Z"></path><path class="cls-1" d="M297.46,59.19v3.63A14.42,14.42,0,0,0,287,58.06a18,18,0,1,0,0,36.05,13.87,13.87,0,0,0,10.51-4.67V93H304V59.19ZM298,76.12a11.42,11.42,0,1,1-11.4-11.93A11.65,11.65,0,0,1,298,76.12Z"></path><path class="cls-1" d="M338.85,84.35l-.12-.12-.12.12A11.58,11.58,0,0,1,330.24,88a11.9,11.9,0,1,1,8.3-20.24l.12.12,4.53-4.45-.13-.12a18.57,18.57,0,0,0-12.82-5.23,18,18,0,1,0,0,36.05,18.63,18.63,0,0,0,12.9-5.24l.12-.12Z"></path><path class="cls-1" d="M403.47,58.06a18,18,0,1,0,18.29,18.06A18.15,18.15,0,0,0,403.47,58.06Zm11.72,18.06a11.68,11.68,0,1,1-11.72-11.93A11.81,11.81,0,0,1,415.19,76.12Z"></path><path class="cls-1" d="M455.18,59.73a16.7,16.7,0,0,0-7.67-1.67,14.12,14.12,0,0,0-11.33,5.14v-4h-6.35V93h6.35V74.92a10.59,10.59,0,0,1,10.43-10.73,9.19,9.19,0,0,1,5.18,1.33l.15.08L455.25,60l.1-.16Z"></path><path class="cls-1" d="M378.46,85l-.12.11a8.83,8.83,0,0,1-6,2.58,8.64,8.64,0,0,1-8.71-8.55v-14h13.07v-6H363.66V37.23h-6.27V59.11h-8v6h8V78.89A14.65,14.65,0,0,0,372,93.57a15.39,15.39,0,0,0,10.57-4.18l.12-.11Z"></path><path class="cls-1" d="M515.19,63.15a5,5,0,0,1-5.12,5.07,5,5,0,1,1,0-10.08A5,5,0,0,1,515.19,63.15Zm-9,0a3.88,3.88,0,0,0,3.91,4,3.83,3.83,0,0,0,3.81-4,3.86,3.86,0,1,0-7.72,0Zm3.08,2.62h-1.16v-5a10.32,10.32,0,0,1,1.92-.15,3.14,3.14,0,0,1,1.74.36,1.38,1.38,0,0,1,.49,1.1,1.27,1.27,0,0,1-1,1.16v.06a1.48,1.48,0,0,1,.91,1.22,3.67,3.67,0,0,0,.37,1.25h-1.25a3.93,3.93,0,0,1-.4-1.22c-.09-.55-.4-.79-1-.79h-.55Zm0-2.83h.55c.64,0,1.16-.22,1.16-.74s-.33-.76-1.07-.76a2.84,2.84,0,0,0-.64.06Z"></path><circle class="cls-2" cx="52.36" cy="46.17" r="5.45" transform="translate(-13.29 69.9) rotate(-61.28)"></circle><circle class="cls-2" cx="69.52" cy="45.84" r="5.45" transform="translate(-4.08 84.78) rotate(-61.28)"></circle><circle class="cls-2" cx="81.91" cy="57.76" r="5.45" transform="translate(-8.1 101.84) rotate(-61.28)"></circle><circle class="cls-2" cx="82.34" cy="74.87" r="5.45" transform="translate(-22.89 111.1) rotate(-61.28)"></circle><circle class="cls-2" cx="70.32" cy="87.27" r="5.45" transform="translate(-40.01 107.01) rotate(-61.28)"></circle><circle class="cls-2" cx="53.22" cy="87.66" r="5.45" transform="translate(-49.23 92.21) rotate(-61.28)"></circle><circle class="cls-2" cx="40.88" cy="75.74" r="5.45" transform="translate(-45.19 75.2) rotate(-61.28)"></circle><circle class="cls-2" cx="40.53" cy="58.51" r="5.45" transform="translate(-30.26 65.94) rotate(-61.28)"></circle><circle class="cls-2" cx="40.53" cy="58.44" r="5.45" transform="translate(-30.2 65.9) rotate(-61.28)"></circle><circle class="cls-2" cx="52.48" cy="46.28" r="5.45" transform="translate(-13.33 70.07) rotate(-61.28)"></circle><circle class="cls-2" cx="88.77" cy="39.23" r="9.44" transform="translate(9.08 94.64) rotate(-58.65)"></circle><circle class="cls-2" cx="100.17" cy="66.74" r="9.44" transform="translate(-8.94 117.56) rotate(-58.65)"></circle><circle class="cls-2" cx="88.98" cy="94.19" r="9.44" transform="translate(-37.75 121.18) rotate(-58.65)"></circle><circle class="cls-2" cx="61.31" cy="105.53" r="9.44" transform="translate(-60.71 102.99) rotate(-58.65)"></circle><circle class="cls-2" cx="33.91" cy="94.28" r="9.44" transform="translate(-64.25 74.19) rotate(-58.65)"></circle><circle class="cls-2" cx="22.6" cy="66.81" r="9.44" transform="translate(-46.22 51.35) rotate(-58.65)"></circle><circle class="cls-2" cx="34.03" cy="39.12" r="9.44" transform="translate(-17.08 47.83) rotate(-58.65)"></circle><circle class="cls-2" cx="61.43" cy="28.12" r="9.44" transform="translate(5.46 65.96) rotate(-58.65)"></circle><path class="cls-2" d="M101.28,83.08v-1h5.11v1h-2v5h-1.19v-5Zm7.84-1,1.53,4.29,1.55-4.29h1.7v6h-1.1V83.24l-1.66,4.84h-1l-1.67-4.84v4.84h-1.1v-6Z"></path></svg>
